<?xml version="1.0" encoding="UTF-8" ?>
<svg version="1.1" width="48" height="16" xmlns="http://www.w3.org/2000/svg" shape-rendering="crispEdges">
<!-- 石头瓦片 (0-15, 0-15) -->
<rect x="0" y="0" width="16" height="16" fill="#808080" />
<rect x="1" y="2" width="3" height="3" fill="#6A6A6A" />
<rect x="7" y="1" width="2" height="2" fill="#6A6A6A" />
<rect x="11" y="4" width="3" height="3" fill="#6A6A6A" />
<rect x="3" y="8" width="2" height="2" fill="#6A6A6A" />
<rect x="9" y="10" width="3" height="3" fill="#6A6A6A" />

<!-- 泥土瓦片 (16-31, 0-15) -->
<rect x="16" y="0" width="16" height="16" fill="#8B6F47" />
<rect x="18" y="3" width="2" height="2" fill="#6B5437" />
<rect x="24" y="2" width="2" height="2" fill="#6B5437" />
<rect x="28" y="6" width="2" height="2" fill="#6B5437" />
<rect x="20" y="9" width="2" height="2" fill="#6B5437" />
<rect x="26" y="11" width="2" height="2" fill="#6B5437" />

<!-- 草地瓦片 (32-47, 0-15) -->
<rect x="32" y="0" width="16" height="4" fill="#7EC850" />
<rect x="32" y="4" width="16" height="12" fill="#8B6F47" />
<rect x="34" y="1" width="1" height="2" fill="#6AB83F" />
<rect x="37" y="0" width="1" height="3" fill="#6AB83F" />
<rect x="41" y="1" width="1" height="2" fill="#6AB83F" />
<rect x="45" y="0" width="1" height="3" fill="#6AB83F" />
</svg>
