<?xml version="1.0" encoding="UTF-8" ?>
<svg version="1.1" width="32" height="32" xmlns="http://www.w3.org/2000/svg" shape-rendering="crispEdges">
<rect x="12" y="1" width="2" height="1" fill="#5D6162" />
<rect x="14" y="1" width="6" height="1" fill="#FFFFFF" />
<rect x="20" y="1" width="1" height="1" fill="#5D6162" />
<rect x="10" y="2" width="2" height="1" fill="#5D6162" />
<rect x="21" y="2" width="2" height="1" fill="#FFFFFF" />
<rect x="8" y="3" width="2" height="1" fill="#5D6162" />
<rect x="23" y="3" width="2" height="1" fill="#FFFFFF" />
<rect x="7" y="4" width="1" height="1" fill="#5D6162" />
<rect x="25" y="4" width="1" height="1" fill="#FFFFFF" />
<rect x="6" y="5" width="1" height="1" fill="#5D6162" />
<rect x="14" y="5" width="6" height="1" fill="#78E7E9" />
<rect x="20" y="5" width="2" height="1" fill="#CAF6F7" />
<rect x="26" y="5" width="1" height="1" fill="#FFFFFF" />
<rect x="5" y="6" width="1" height="1" fill="#5D6162" />
<rect x="14" y="6" width="1" height="1" fill="#95E7E9" />
<rect x="15" y="6" width="6" height="1" fill="#78E7E9" />
<rect x="21" y="6" width="3" height="1" fill="#CAF6F7" />
<rect x="27" y="6" width="1" height="1" fill="#FFFFFF" />
<rect x="4" y="7" width="1" height="1" fill="#5D6162" />
<rect x="10" y="7" width="1" height="1" fill="#E8A4F1" />
<rect x="15" y="7" width="3" height="1" fill="#E8A4F1" />
<rect x="18" y="7" width="6" height="1" fill="#78E7E9" />
<rect x="24" y="7" width="1" height="2" fill="#CAF6F7" />
<rect x="28" y="7" width="1" height="1" fill="#FFFFFF" />
<rect x="3" y="8" width="1" height="2" fill="#5D6162" />
<rect x="19" y="8" width="5" height="1" fill="#78E7E9" />
<rect x="25" y="8" width="1" height="2" fill="#CAF6F7" />
<rect x="29" y="8" width="1" height="1" fill="#5D6162" />
<rect x="2" y="9" width="1" height="3" fill="#5D6162" />
<rect x="19" y="9" width="4" height="1" fill="#E8A4F1" />
<rect x="23" y="9" width="2" height="2" fill="#78E7E9" />
<rect x="26" y="9" width="1" height="4" fill="#CAF6F7" />
<rect x="30" y="9" width="1" height="1" fill="#FFFFFF" />
<rect x="22" y="10" width="1" height="1" fill="#AA459D" />
<rect x="25" y="10" width="1" height="4" fill="#78E7E9" />
<rect x="30" y="10" width="1" height="2" fill="#5D6162" />
<rect x="23" y="11" width="2" height="1" fill="#AA459D" />
<rect x="1" y="12" width="1" height="4" fill="#5D6162" />
<rect x="24" y="12" width="1" height="2" fill="#E8A4F1" />
<rect x="27" y="12" width="1" height="2" fill="#CAF6F7" />
<rect x="31" y="12" width="1" height="3" fill="#FFFFFF" />
<rect x="26" y="13" width="1" height="4" fill="#78E7E9" />
<rect x="25" y="14" width="1" height="2" fill="#E8A4F1" />
<rect x="27" y="14" width="1" height="2" fill="#78E7E9" />
<rect x="31" y="15" width="1" height="6" fill="#5D6162" />
<rect x="1" y="16" width="1" height="5" fill="#FFFFFF" />
<rect x="26" y="17" width="1" height="2" fill="#E8A4F1" />
<rect x="6" y="19" width="1" height="3" fill="#E8A4F1" />
<rect x="2" y="21" width="1" height="2" fill="#FFFFFF" />
<rect x="30" y="21" width="1" height="2" fill="#5D6162" />
<rect x="6" y="22" width="1" height="2" fill="#CAF6F7" />
<rect x="7" y="22" width="1" height="1" fill="#E8A4F1" />
<rect x="25" y="22" width="1" height="3" fill="#78E7E9" />
<rect x="3" y="23" width="1" height="2" fill="#FFFFFF" />
<rect x="7" y="23" width="1" height="1" fill="#78E7E9" />
<rect x="8" y="23" width="1" height="1" fill="#E8A4F1" />
<rect x="24" y="23" width="1" height="3" fill="#78E7E9" />
<rect x="29" y="23" width="1" height="2" fill="#5D6162" />
<rect x="7" y="24" width="1" height="1" fill="#CAF6F7" />
<rect x="8" y="24" width="1" height="1" fill="#78E7E9" />
<rect x="9" y="24" width="2" height="1" fill="#E8A4F1" />
<rect x="23" y="24" width="1" height="2" fill="#78E7E9" />
<rect x="4" y="25" width="1" height="1" fill="#FFFFFF" />
<rect x="8" y="25" width="1" height="1" fill="#CAF6F7" />
<rect x="9" y="25" width="2" height="1" fill="#78E7E9" />
<rect x="11" y="25" width="1" height="2" fill="#E8A4F1" />
<rect x="22" y="25" width="1" height="1" fill="#78E7E9" />
<rect x="28" y="25" width="1" height="1" fill="#5D6162" />
<rect x="5" y="26" width="1" height="1" fill="#5D6162" />
<rect x="9" y="26" width="2" height="1" fill="#CAF6F7" />
<rect x="21" y="26" width="1" height="1" fill="#78E7E9" />
<rect x="22" y="26" width="2" height="1" fill="#E8A4F1" />
<rect x="27" y="26" width="1" height="1" fill="#5D6162" />
<rect x="6" y="27" width="1" height="1" fill="#FFFFFF" />
<rect x="10" y="27" width="1" height="1" fill="#CAF6F7" />
<rect x="11" y="27" width="1" height="1" fill="#78E7E9" />
<rect x="12" y="27" width="3" height="1" fill="#E8A4F1" />
<rect x="26" y="27" width="1" height="1" fill="#5D6162" />
<rect x="7" y="28" width="1" height="1" fill="#FFFFFF" />
<rect x="25" y="28" width="1" height="1" fill="#5D6162" />
<rect x="8" y="29" width="1" height="1" fill="#FFFFFF" />
<rect x="9" y="29" width="1" height="1" fill="#5D6162" />
<rect x="23" y="29" width="2" height="1" fill="#5D6162" />
<rect x="10" y="30" width="1" height="1" fill="#FFFFFF" />
<rect x="11" y="30" width="1" height="1" fill="#5D6162" />
<rect x="12" y="30" width="1" height="1" fill="#E8A4F1" />
<rect x="21" y="30" width="2" height="1" fill="#5D6162" />
<rect x="12" y="31" width="6" height="1" fill="#FFFFFF" />
<rect x="18" y="31" width="3" height="1" fill="#5D6162" />
</svg>