<?xml version="1.0" encoding="UTF-8" ?>
<svg version="1.1" width="1024" height="1024" xmlns="http://www.w3.org/2000/svg" shape-rendering="crispEdges">
<rect x="0" y="0" width="2" height="2" fill="#A18362" />
<rect x="2" y="0" width="3" height="1" fill="#B99270" />
<rect x="5" y="0" width="1" height="1" fill="#7C5F3E" />
<rect x="6" y="0" width="2" height="3" fill="#A18362" />
<rect x="8" y="0" width="4" height="4" fill="#B99270" />
<rect x="12" y="0" width="2" height="3" fill="#D4B495" />
<rect x="14" y="0" width="1" height="3" fill="#7C5F3E" />
<rect x="15" y="0" width="1" height="3" fill="#A18362" />
<rect x="16" y="0" width="5" height="1" fill="#B99270" />
<rect x="21" y="0" width="6" height="1" fill="#D4B495" />
<rect x="27" y="0" width="1" height="1" fill="#7C5F3E" />
<rect x="28" y="0" width="6" height="1" fill="#A18362" />
<rect x="34" y="0" width="3" height="1" fill="#B99270" />
<rect x="37" y="0" width="1" height="1" fill="#7C5F3E" />
<rect x="38" y="0" width="2" height="3" fill="#A18362" />
<rect x="40" y="0" width="4" height="4" fill="#B99270" />
<rect x="44" y="0" width="2" height="3" fill="#D4B495" />
<rect x="46" y="0" width="1" height="3" fill="#7C5F3E" />
<rect x="47" y="0" width="1" height="3" fill="#A18362" />
<rect x="48" y="0" width="5" height="1" fill="#B99270" />
<rect x="53" y="0" width="6" height="1" fill="#D4B495" />
<rect x="59" y="0" width="1" height="1" fill="#7C5F3E" />
<rect x="60" y="0" width="4" height="1" fill="#A18362" />
<rect x="2" y="1" width="1" height="1" fill="#A18362" />
<rect x="3" y="1" width="1" height="1" fill="#977247" />
<rect x="4" y="1" width="1" height="3" fill="#7C5F3E" />
<rect x="5" y="1" width="1" height="3" fill="#977247" />
<rect x="16" y="1" width="1" height="2" fill="#A18362" />
<rect x="17" y="1" width="7" height="1" fill="#B99270" />
<rect x="24" y="1" width="4" height="1" fill="#D4B495" />
<rect x="28" y="1" width="2" height="1" fill="#7C5F3E" />
<rect x="30" y="1" width="5" height="1" fill="#A18362" />
<rect x="35" y="1" width="1" height="1" fill="#977247" />
<rect x="36" y="1" width="1" height="3" fill="#7C5F3E" />
<rect x="37" y="1" width="1" height="3" fill="#977247" />
<rect x="48" y="1" width="1" height="2" fill="#A18362" />
<rect x="49" y="1" width="7" height="1" fill="#B99270" />
<rect x="56" y="1" width="4" height="1" fill="#D4B495" />
<rect x="60" y="1" width="2" height="1" fill="#7C5F3E" />
<rect x="62" y="1" width="2" height="1" fill="#A18362" />
<rect x="0" y="2" width="3" height="1" fill="#977247" />
<rect x="3" y="2" width="1" height="1" fill="#7C5F3E" />
<rect x="17" y="2" width="2" height="1" fill="#A18362" />
<rect x="19" y="2" width="7" height="1" fill="#B99270" />
<rect x="26" y="2" width="4" height="1" fill="#D4B495" />
<rect x="30" y="2" width="2" height="2" fill="#7C5F3E" />
<rect x="32" y="2" width="3" height="1" fill="#977247" />
<rect x="35" y="2" width="1" height="1" fill="#7C5F3E" />
<rect x="49" y="2" width="2" height="1" fill="#A18362" />
<rect x="51" y="2" width="7" height="1" fill="#B99270" />
<rect x="58" y="2" width="4" height="1" fill="#D4B495" />
<rect x="62" y="2" width="2" height="2" fill="#7C5F3E" />
<rect x="0" y="3" width="3" height="1" fill="#7C5F3E" />
<rect x="3" y="3" width="1" height="1" fill="#A18362" />
<rect x="6" y="3" width="1" height="2" fill="#977247" />
<rect x="7" y="3" width="1" height="1" fill="#A18362" />
<rect x="12" y="3" width="1" height="3" fill="#B99270" />
<rect x="13" y="3" width="2" height="2" fill="#D4B495" />
<rect x="15" y="3" width="3" height="1" fill="#7C5F3E" />
<rect x="18" y="3" width="6" height="1" fill="#A18362" />
<rect x="24" y="3" width="5" height="1" fill="#B99270" />
<rect x="29" y="3" width="1" height="1" fill="#D4B495" />
<rect x="32" y="3" width="3" height="1" fill="#7C5F3E" />
<rect x="35" y="3" width="1" height="1" fill="#A18362" />
<rect x="38" y="3" width="1" height="2" fill="#977247" />
<rect x="39" y="3" width="1" height="1" fill="#A18362" />
<rect x="44" y="3" width="1" height="3" fill="#B99270" />
<rect x="45" y="3" width="2" height="2" fill="#D4B495" />
<rect x="47" y="3" width="3" height="1" fill="#7C5F3E" />
<rect x="50" y="3" width="6" height="1" fill="#A18362" />
<rect x="56" y="3" width="5" height="1" fill="#B99270" />
<rect x="61" y="3" width="1" height="1" fill="#D4B495" />
<rect x="0" y="4" width="4" height="1" fill="#D4B495" />
<rect x="4" y="4" width="1" height="1" fill="#A18362" />
<rect x="5" y="4" width="1" height="1" fill="#7C5F3E" />
<rect x="7" y="4" width="1" height="2" fill="#977247" />
<rect x="8" y="4" width="3" height="2" fill="#A18362" />
<rect x="11" y="4" width="1" height="1" fill="#B99270" />
<rect x="15" y="4" width="3" height="2" fill="#D4B495" />
<rect x="18" y="4" width="4" height="1" fill="#7C5F3E" />
<rect x="22" y="4" width="7" height="1" fill="#A18362" />
<rect x="29" y="4" width="1" height="1" fill="#7C5F3E" />
<rect x="30" y="4" width="2" height="2" fill="#B99270" />
<rect x="32" y="4" width="4" height="1" fill="#D4B495" />
<rect x="36" y="4" width="1" height="1" fill="#A18362" />
<rect x="37" y="4" width="1" height="1" fill="#7C5F3E" />
<rect x="39" y="4" width="1" height="2" fill="#977247" />
<rect x="40" y="4" width="3" height="2" fill="#A18362" />
<rect x="43" y="4" width="1" height="1" fill="#B99270" />
<rect x="47" y="4" width="3" height="2" fill="#D4B495" />
<rect x="50" y="4" width="4" height="1" fill="#7C5F3E" />
<rect x="54" y="4" width="7" height="1" fill="#A18362" />
<rect x="61" y="4" width="1" height="1" fill="#7C5F3E" />
<rect x="62" y="4" width="2" height="2" fill="#B99270" />
<rect x="0" y="5" width="2" height="2" fill="#B99270" />
<rect x="2" y="5" width="4" height="1" fill="#D4B495" />
<rect x="6" y="5" width="1" height="1" fill="#7C5F3E" />
<rect x="11" y="5" width="1" height="2" fill="#A18362" />
<rect x="13" y="5" width="2" height="1" fill="#B99270" />
<rect x="18" y="5" width="4" height="1" fill="#D4B495" />
<rect x="22" y="5" width="7" height="1" fill="#7C5F3E" />
<rect x="29" y="5" width="1" height="1" fill="#B99270" />
<rect x="32" y="5" width="2" height="2" fill="#B99270" />
<rect x="34" y="5" width="4" height="1" fill="#D4B495" />
<rect x="38" y="5" width="1" height="1" fill="#7C5F3E" />
<rect x="43" y="5" width="1" height="2" fill="#A18362" />
<rect x="45" y="5" width="2" height="1" fill="#B99270" />
<rect x="50" y="5" width="4" height="1" fill="#D4B495" />
<rect x="54" y="5" width="7" height="1" fill="#7C5F3E" />
<rect x="61" y="5" width="1" height="1" fill="#B99270" />
<rect x="2" y="6" width="4" height="2" fill="#B99270" />
<rect x="6" y="6" width="2" height="1" fill="#D4B495" />
<rect x="8" y="6" width="1" height="2" fill="#977247" />
<rect x="9" y="6" width="1" height="7" fill="#7C5F3E" />
<rect x="10" y="6" width="1" height="1" fill="#A18362" />
<rect x="12" y="6" width="4" height="1" fill="#A18362" />
<rect x="16" y="6" width="6" height="1" fill="#B99270" />
<rect x="22" y="6" width="1" height="1" fill="#7C5F3E" />
<rect x="23" y="6" width="1" height="2" fill="#977247" />
<rect x="24" y="6" width="3" height="1" fill="#A18362" />
<rect x="27" y="6" width="1" height="8" fill="#B99270" />
<rect x="28" y="6" width="1" height="3" fill="#7C5F3E" />
<rect x="29" y="6" width="3" height="2" fill="#A18362" />
<rect x="34" y="6" width="4" height="2" fill="#B99270" />
<rect x="38" y="6" width="2" height="1" fill="#D4B495" />
<rect x="40" y="6" width="1" height="2" fill="#977247" />
<rect x="41" y="6" width="1" height="7" fill="#7C5F3E" />
<rect x="42" y="6" width="1" height="1" fill="#A18362" />
<rect x="44" y="6" width="4" height="1" fill="#A18362" />
<rect x="48" y="6" width="6" height="1" fill="#B99270" />
<rect x="54" y="6" width="1" height="1" fill="#7C5F3E" />
<rect x="55" y="6" width="1" height="2" fill="#977247" />
<rect x="56" y="6" width="3" height="1" fill="#A18362" />
<rect x="59" y="6" width="1" height="8" fill="#B99270" />
<rect x="60" y="6" width="1" height="3" fill="#7C5F3E" />
<rect x="61" y="6" width="3" height="2" fill="#A18362" />
<rect x="0" y="7" width="2" height="1" fill="#A18362" />
<rect x="6" y="7" width="1" height="6" fill="#B99270" />
<rect x="7" y="7" width="1" height="2" fill="#D4B495" />
<rect x="10" y="7" width="6" height="1" fill="#7C5F3E" />
<rect x="16" y="7" width="5" height="1" fill="#A18362" />
<rect x="21" y="7" width="1" height="1" fill="#7C5F3E" />
<rect x="22" y="7" width="1" height="1" fill="#977247" />
<rect x="24" y="7" width="1" height="1" fill="#A18362" />
<rect x="25" y="7" width="2" height="6" fill="#B99270" />
<rect x="32" y="7" width="2" height="1" fill="#A18362" />
<rect x="38" y="7" width="1" height="6" fill="#B99270" />
<rect x="39" y="7" width="1" height="2" fill="#D4B495" />
<rect x="42" y="7" width="6" height="1" fill="#7C5F3E" />
<rect x="48" y="7" width="5" height="1" fill="#A18362" />
<rect x="53" y="7" width="1" height="1" fill="#7C5F3E" />
<rect x="54" y="7" width="1" height="1" fill="#977247" />
<rect x="56" y="7" width="1" height="1" fill="#A18362" />
<rect x="57" y="7" width="2" height="6" fill="#B99270" />
<rect x="0" y="8" width="1" height="1" fill="#977247" />
<rect x="1" y="8" width="1" height="1" fill="#A18362" />
<rect x="2" y="8" width="1" height="1" fill="#B99270" />
<rect x="3" y="8" width="1" height="4" fill="#A18362" />
<rect x="4" y="8" width="2" height="3" fill="#B99270" />
<rect x="8" y="8" width="1" height="3" fill="#D4B495" />
<rect x="10" y="8" width="1" height="5" fill="#A18362" />
<rect x="11" y="8" width="5" height="1" fill="#B99270" />
<rect x="16" y="8" width="2" height="1" fill="#7C5F3E" />
<rect x="18" y="8" width="2" height="1" fill="#977247" />
<rect x="20" y="8" width="1" height="2" fill="#7C5F3E" />
<rect x="21" y="8" width="1" height="2" fill="#977247" />
<rect x="22" y="8" width="2" height="1" fill="#A18362" />
<rect x="24" y="8" width="1" height="3" fill="#B99270" />
<rect x="29" y="8" width="1" height="1" fill="#7C5F3E" />
<rect x="30" y="8" width="2" height="1" fill="#A18362" />
<rect x="32" y="8" width="1" height="1" fill="#977247" />
<rect x="33" y="8" width="1" height="1" fill="#A18362" />
<rect x="34" y="8" width="1" height="1" fill="#B99270" />
<rect x="35" y="8" width="1" height="4" fill="#A18362" />
<rect x="36" y="8" width="2" height="3" fill="#B99270" />
<rect x="40" y="8" width="1" height="3" fill="#D4B495" />
<rect x="42" y="8" width="1" height="5" fill="#A18362" />
<rect x="43" y="8" width="5" height="1" fill="#B99270" />
<rect x="48" y="8" width="2" height="1" fill="#7C5F3E" />
<rect x="50" y="8" width="2" height="1" fill="#977247" />
<rect x="52" y="8" width="1" height="2" fill="#7C5F3E" />
<rect x="53" y="8" width="1" height="2" fill="#977247" />
<rect x="54" y="8" width="2" height="1" fill="#A18362" />
<rect x="56" y="8" width="1" height="3" fill="#B99270" />
<rect x="61" y="8" width="1" height="1" fill="#7C5F3E" />
<rect x="62" y="8" width="2" height="1" fill="#A18362" />
<rect x="0" y="9" width="1" height="3" fill="#7C5F3E" />
<rect x="1" y="9" width="1" height="2" fill="#977247" />
<rect x="2" y="9" width="1" height="2" fill="#A18362" />
<rect x="7" y="9" width="1" height="11" fill="#B99270" />
<rect x="11" y="9" width="3" height="3" fill="#B99270" />
<rect x="14" y="9" width="4" height="1" fill="#D4B495" />
<rect x="18" y="9" width="1" height="1" fill="#B99270" />
<rect x="19" y="9" width="1" height="1" fill="#A18362" />
<rect x="22" y="9" width="1" height="1" fill="#A18362" />
<rect x="23" y="9" width="1" height="1" fill="#B99270" />
<rect x="28" y="9" width="2" height="1" fill="#D4B495" />
<rect x="30" y="9" width="1" height="1" fill="#7C5F3E" />
<rect x="31" y="9" width="1" height="1" fill="#A18362" />
<rect x="32" y="9" width="1" height="3" fill="#7C5F3E" />
<rect x="33" y="9" width="1" height="2" fill="#977247" />
<rect x="34" y="9" width="1" height="2" fill="#A18362" />
<rect x="39" y="9" width="1" height="11" fill="#B99270" />
<rect x="43" y="9" width="3" height="3" fill="#B99270" />
<rect x="46" y="9" width="4" height="1" fill="#D4B495" />
<rect x="50" y="9" width="1" height="1" fill="#B99270" />
<rect x="51" y="9" width="1" height="1" fill="#A18362" />
<rect x="54" y="9" width="1" height="1" fill="#A18362" />
<rect x="55" y="9" width="1" height="1" fill="#B99270" />
<rect x="60" y="9" width="2" height="1" fill="#D4B495" />
<rect x="62" y="9" width="1" height="1" fill="#7C5F3E" />
<rect x="63" y="9" width="1" height="1" fill="#A18362" />
<rect x="14" y="10" width="2" height="4" fill="#B99270" />
<rect x="16" y="10" width="4" height="1" fill="#D4B495" />
<rect x="20" y="10" width="1" height="1" fill="#A18362" />
<rect x="21" y="10" width="1" height="2" fill="#7C5F3E" />
<rect x="22" y="10" width="1" height="2" fill="#977247" />
<rect x="23" y="10" width="1" height="1" fill="#A18362" />
<rect x="28" y="10" width="2" height="4" fill="#B99270" />
<rect x="30" y="10" width="1" height="1" fill="#D4B495" />
<rect x="31" y="10" width="1" height="1" fill="#7C5F3E" />
<rect x="46" y="10" width="2" height="4" fill="#B99270" />
<rect x="48" y="10" width="4" height="1" fill="#D4B495" />
<rect x="52" y="10" width="1" height="1" fill="#A18362" />
<rect x="53" y="10" width="1" height="2" fill="#7C5F3E" />
<rect x="54" y="10" width="1" height="2" fill="#977247" />
<rect x="55" y="10" width="1" height="1" fill="#A18362" />
<rect x="60" y="10" width="2" height="4" fill="#B99270" />
<rect x="62" y="10" width="1" height="1" fill="#D4B495" />
<rect x="63" y="10" width="1" height="1" fill="#7C5F3E" />
<rect x="1" y="11" width="1" height="2" fill="#7C5F3E" />
<rect x="2" y="11" width="1" height="1" fill="#977247" />
<rect x="4" y="11" width="1" height="2" fill="#A18362" />
<rect x="5" y="11" width="1" height="1" fill="#B99270" />
<rect x="8" y="11" width="1" height="2" fill="#A18362" />
<rect x="16" y="11" width="2" height="5" fill="#B99270" />
<rect x="18" y="11" width="2" height="1" fill="#D4B495" />
<rect x="20" y="11" width="1" height="1" fill="#B99270" />
<rect x="23" y="11" width="1" height="2" fill="#977247" />
<rect x="24" y="11" width="1" height="2" fill="#A18362" />
<rect x="30" y="11" width="1" height="5" fill="#B99270" />
<rect x="31" y="11" width="1" height="1" fill="#D4B495" />
<rect x="33" y="11" width="1" height="2" fill="#7C5F3E" />
<rect x="34" y="11" width="1" height="1" fill="#977247" />
<rect x="36" y="11" width="1" height="2" fill="#A18362" />
<rect x="37" y="11" width="1" height="1" fill="#B99270" />
<rect x="40" y="11" width="1" height="2" fill="#A18362" />
<rect x="48" y="11" width="2" height="5" fill="#B99270" />
<rect x="50" y="11" width="2" height="1" fill="#D4B495" />
<rect x="52" y="11" width="1" height="1" fill="#B99270" />
<rect x="55" y="11" width="1" height="2" fill="#977247" />
<rect x="56" y="11" width="1" height="2" fill="#A18362" />
<rect x="62" y="11" width="1" height="5" fill="#B99270" />
<rect x="63" y="11" width="1" height="1" fill="#D4B495" />
<rect x="0" y="12" width="1" height="1" fill="#977247" />
<rect x="2" y="12" width="1" height="2" fill="#7C5F3E" />
<rect x="3" y="12" width="1" height="2" fill="#977247" />
<rect x="5" y="12" width="1" height="2" fill="#A18362" />
<rect x="11" y="12" width="1" height="2" fill="#A18362" />
<rect x="12" y="12" width="2" height="1" fill="#B99270" />
<rect x="18" y="12" width="1" height="5" fill="#B99270" />
<rect x="19" y="12" width="2" height="1" fill="#D4B495" />
<rect x="21" y="12" width="1" height="1" fill="#A18362" />
<rect x="22" y="12" width="1" height="1" fill="#7C5F3E" />
<rect x="31" y="12" width="1" height="2" fill="#B99270" />
<rect x="32" y="12" width="1" height="1" fill="#977247" />
<rect x="34" y="12" width="1" height="2" fill="#7C5F3E" />
<rect x="35" y="12" width="1" height="2" fill="#977247" />
<rect x="37" y="12" width="1" height="2" fill="#A18362" />
<rect x="43" y="12" width="1" height="2" fill="#A18362" />
<rect x="44" y="12" width="2" height="1" fill="#B99270" />
<rect x="50" y="12" width="1" height="5" fill="#B99270" />
<rect x="51" y="12" width="2" height="1" fill="#D4B495" />
<rect x="53" y="12" width="1" height="1" fill="#A18362" />
<rect x="54" y="12" width="1" height="1" fill="#7C5F3E" />
<rect x="63" y="12" width="1" height="2" fill="#B99270" />
<rect x="0" y="13" width="1" height="3" fill="#D4B495" />
<rect x="1" y="13" width="1" height="1" fill="#977247" />
<rect x="4" y="13" width="1" height="1" fill="#977247" />
<rect x="6" y="13" width="1" height="1" fill="#A18362" />
<rect x="8" y="13" width="1" height="7" fill="#B99270" />
<rect x="9" y="13" width="1" height="2" fill="#D4B495" />
<rect x="10" y="13" width="1" height="2" fill="#7C5F3E" />
<rect x="12" y="13" width="2" height="2" fill="#A18362" />
<rect x="19" y="13" width="1" height="4" fill="#B99270" />
<rect x="20" y="13" width="1" height="3" fill="#D4B495" />
<rect x="21" y="13" width="1" height="2" fill="#B99270" />
<rect x="22" y="13" width="1" height="1" fill="#A18362" />
<rect x="23" y="13" width="1" height="2" fill="#7C5F3E" />
<rect x="24" y="13" width="1" height="2" fill="#977247" />
<rect x="25" y="13" width="2" height="1" fill="#A18362" />
<rect x="32" y="13" width="1" height="3" fill="#D4B495" />
<rect x="33" y="13" width="1" height="1" fill="#977247" />
<rect x="36" y="13" width="1" height="1" fill="#977247" />
<rect x="38" y="13" width="1" height="1" fill="#A18362" />
<rect x="40" y="13" width="1" height="7" fill="#B99270" />
<rect x="41" y="13" width="1" height="2" fill="#D4B495" />
<rect x="42" y="13" width="1" height="2" fill="#7C5F3E" />
<rect x="44" y="13" width="2" height="2" fill="#A18362" />
<rect x="51" y="13" width="1" height="4" fill="#B99270" />
<rect x="52" y="13" width="1" height="3" fill="#D4B495" />
<rect x="53" y="13" width="1" height="2" fill="#B99270" />
<rect x="54" y="13" width="1" height="1" fill="#A18362" />
<rect x="55" y="13" width="1" height="2" fill="#7C5F3E" />
<rect x="56" y="13" width="1" height="2" fill="#977247" />
<rect x="57" y="13" width="2" height="1" fill="#A18362" />
<rect x="1" y="14" width="1" height="4" fill="#D4B495" />
<rect x="2" y="14" width="1" height="1" fill="#977247" />
<rect x="3" y="14" width="4" height="1" fill="#7C5F3E" />
<rect x="11" y="14" width="1" height="1" fill="#977247" />
<rect x="14" y="14" width="1" height="2" fill="#A18362" />
<rect x="15" y="14" width="1" height="1" fill="#B99270" />
<rect x="22" y="14" width="1" height="1" fill="#B99270" />
<rect x="25" y="14" width="1" height="1" fill="#977247" />
<rect x="26" y="14" width="1" height="5" fill="#7C5F3E" />
<rect x="27" y="14" width="2" height="1" fill="#A18362" />
<rect x="29" y="14" width="1" height="1" fill="#B99270" />
<rect x="31" y="14" width="1" height="3" fill="#A18362" />
<rect x="33" y="14" width="1" height="4" fill="#D4B495" />
<rect x="34" y="14" width="1" height="1" fill="#977247" />
<rect x="35" y="14" width="4" height="1" fill="#7C5F3E" />
<rect x="43" y="14" width="1" height="1" fill="#977247" />
<rect x="46" y="14" width="1" height="2" fill="#A18362" />
<rect x="47" y="14" width="1" height="1" fill="#B99270" />
<rect x="54" y="14" width="1" height="1" fill="#B99270" />
<rect x="57" y="14" width="1" height="1" fill="#977247" />
<rect x="58" y="14" width="1" height="5" fill="#7C5F3E" />
<rect x="59" y="14" width="2" height="1" fill="#A18362" />
<rect x="61" y="14" width="1" height="1" fill="#B99270" />
<rect x="63" y="14" width="1" height="3" fill="#A18362" />
<rect x="2" y="15" width="1" height="2" fill="#7C5F3E" />
<rect x="3" y="15" width="1" height="2" fill="#A18362" />
<rect x="4" y="15" width="3" height="2" fill="#B99270" />
<rect x="9" y="15" width="1" height="5" fill="#B99270" />
<rect x="10" y="15" width="1" height="1" fill="#D4B495" />
<rect x="11" y="15" width="1" height="1" fill="#7C5F3E" />
<rect x="12" y="15" width="1" height="1" fill="#977247" />
<rect x="13" y="15" width="1" height="1" fill="#A18362" />
<rect x="15" y="15" width="1" height="2" fill="#A18362" />
<rect x="21" y="15" width="2" height="1" fill="#D4B495" />
<rect x="23" y="15" width="1" height="4" fill="#B99270" />
<rect x="24" y="15" width="2" height="1" fill="#7C5F3E" />
<rect x="27" y="15" width="1" height="2" fill="#7C5F3E" />
<rect x="28" y="15" width="1" height="3" fill="#977247" />
<rect x="29" y="15" width="1" height="1" fill="#A18362" />
<rect x="34" y="15" width="1" height="2" fill="#7C5F3E" />
<rect x="35" y="15" width="1" height="2" fill="#A18362" />
<rect x="36" y="15" width="3" height="2" fill="#B99270" />
<rect x="41" y="15" width="1" height="5" fill="#B99270" />
<rect x="42" y="15" width="1" height="1" fill="#D4B495" />
<rect x="43" y="15" width="1" height="1" fill="#7C5F3E" />
<rect x="44" y="15" width="1" height="1" fill="#977247" />
<rect x="45" y="15" width="1" height="1" fill="#A18362" />
<rect x="47" y="15" width="1" height="2" fill="#A18362" />
<rect x="53" y="15" width="2" height="1" fill="#D4B495" />
<rect x="55" y="15" width="1" height="4" fill="#B99270" />
<rect x="56" y="15" width="2" height="1" fill="#7C5F3E" />
<rect x="59" y="15" width="1" height="2" fill="#7C5F3E" />
<rect x="60" y="15" width="1" height="3" fill="#977247" />
<rect x="61" y="15" width="1" height="1" fill="#A18362" />
<rect x="0" y="16" width="1" height="7" fill="#B99270" />
<rect x="10" y="16" width="1" height="4" fill="#B99270" />
<rect x="11" y="16" width="1" height="1" fill="#D4B495" />
<rect x="12" y="16" width="1" height="1" fill="#7C5F3E" />
<rect x="13" y="16" width="2" height="1" fill="#977247" />
<rect x="16" y="16" width="2" height="2" fill="#A18362" />
<rect x="20" y="16" width="2" height="2" fill="#B99270" />
<rect x="22" y="16" width="1" height="2" fill="#D4B495" />
<rect x="24" y="16" width="1" height="3" fill="#A18362" />
<rect x="25" y="16" width="1" height="4" fill="#7C5F3E" />
<rect x="29" y="16" width="1" height="2" fill="#977247" />
<rect x="30" y="16" width="1" height="1" fill="#A18362" />
<rect x="32" y="16" width="1" height="7" fill="#B99270" />
<rect x="42" y="16" width="1" height="4" fill="#B99270" />
<rect x="43" y="16" width="1" height="1" fill="#D4B495" />
<rect x="44" y="16" width="1" height="1" fill="#7C5F3E" />
<rect x="45" y="16" width="2" height="1" fill="#977247" />
<rect x="48" y="16" width="2" height="2" fill="#A18362" />
<rect x="52" y="16" width="2" height="2" fill="#B99270" />
<rect x="54" y="16" width="1" height="2" fill="#D4B495" />
<rect x="56" y="16" width="1" height="3" fill="#A18362" />
<rect x="57" y="16" width="1" height="4" fill="#7C5F3E" />
<rect x="61" y="16" width="1" height="2" fill="#977247" />
<rect x="62" y="16" width="1" height="1" fill="#A18362" />
<rect x="2" y="17" width="1" height="3" fill="#D4B495" />
<rect x="3" y="17" width="1" height="2" fill="#7C5F3E" />
<rect x="4" y="17" width="3" height="1" fill="#A18362" />
<rect x="11" y="17" width="1" height="3" fill="#B99270" />
<rect x="12" y="17" width="1" height="1" fill="#D4B495" />
<rect x="13" y="17" width="2" height="1" fill="#7C5F3E" />
<rect x="15" y="17" width="1" height="1" fill="#977247" />
<rect x="18" y="17" width="2" height="2" fill="#A18362" />
<rect x="27" y="17" width="1" height="3" fill="#977247" />
<rect x="30" y="17" width="2" height="1" fill="#977247" />
<rect x="34" y="17" width="1" height="3" fill="#D4B495" />
<rect x="35" y="17" width="1" height="2" fill="#7C5F3E" />
<rect x="36" y="17" width="3" height="1" fill="#A18362" />
<rect x="43" y="17" width="1" height="3" fill="#B99270" />
<rect x="44" y="17" width="1" height="1" fill="#D4B495" />
<rect x="45" y="17" width="2" height="1" fill="#7C5F3E" />
<rect x="47" y="17" width="1" height="1" fill="#977247" />
<rect x="50" y="17" width="2" height="2" fill="#A18362" />
<rect x="59" y="17" width="1" height="3" fill="#977247" />
<rect x="62" y="17" width="2" height="1" fill="#977247" />
<rect x="1" y="18" width="1" height="6" fill="#B99270" />
<rect x="4" y="18" width="2" height="1" fill="#A18362" />
<rect x="6" y="18" width="1" height="1" fill="#B99270" />
<rect x="12" y="18" width="1" height="2" fill="#B99270" />
<rect x="13" y="18" width="1" height="1" fill="#A18362" />
<rect x="14" y="18" width="3" height="1" fill="#7C5F3E" />
<rect x="17" y="18" width="1" height="1" fill="#A18362" />
<rect x="20" y="18" width="1" height="2" fill="#A18362" />
<rect x="21" y="18" width="2" height="1" fill="#B99270" />
<rect x="28" y="18" width="1" height="1" fill="#7C5F3E" />
<rect x="29" y="18" width="3" height="2" fill="#A18362" />
<rect x="33" y="18" width="1" height="6" fill="#B99270" />
<rect x="36" y="18" width="2" height="1" fill="#A18362" />
<rect x="38" y="18" width="1" height="1" fill="#B99270" />
<rect x="44" y="18" width="1" height="2" fill="#B99270" />
<rect x="45" y="18" width="1" height="1" fill="#A18362" />
<rect x="46" y="18" width="3" height="1" fill="#7C5F3E" />
<rect x="49" y="18" width="1" height="1" fill="#A18362" />
<rect x="52" y="18" width="1" height="2" fill="#A18362" />
<rect x="53" y="18" width="2" height="1" fill="#B99270" />
<rect x="60" y="18" width="1" height="1" fill="#7C5F3E" />
<rect x="61" y="18" width="3" height="2" fill="#A18362" />
<rect x="3" y="19" width="1" height="1" fill="#D4B495" />
<rect x="4" y="19" width="2" height="1" fill="#7C5F3E" />
<rect x="6" y="19" width="1" height="1" fill="#A18362" />
<rect x="13" y="19" width="3" height="1" fill="#7C5F3E" />
<rect x="16" y="19" width="1" height="4" fill="#A18362" />
<rect x="17" y="19" width="3" height="1" fill="#7C5F3E" />
<rect x="21" y="19" width="2" height="1" fill="#A18362" />
<rect x="23" y="19" width="2" height="2" fill="#7C5F3E" />
<rect x="26" y="19" width="1" height="3" fill="#977247" />
<rect x="28" y="19" width="1" height="3" fill="#A18362" />
<rect x="35" y="19" width="1" height="1" fill="#D4B495" />
<rect x="36" y="19" width="2" height="1" fill="#7C5F3E" />
<rect x="38" y="19" width="1" height="1" fill="#A18362" />
<rect x="45" y="19" width="3" height="1" fill="#7C5F3E" />
<rect x="48" y="19" width="1" height="4" fill="#A18362" />
<rect x="49" y="19" width="3" height="1" fill="#7C5F3E" />
<rect x="53" y="19" width="2" height="1" fill="#A18362" />
<rect x="55" y="19" width="2" height="2" fill="#7C5F3E" />
<rect x="58" y="19" width="1" height="3" fill="#977247" />
<rect x="60" y="19" width="1" height="3" fill="#A18362" />
<rect x="2" y="20" width="1" height="4" fill="#B99270" />
<rect x="3" y="20" width="1" height="4" fill="#A18362" />
<rect x="4" y="20" width="1" height="2" fill="#977247" />
<rect x="5" y="20" width="3" height="1" fill="#7C5F3E" />
<rect x="8" y="20" width="2" height="1" fill="#A18362" />
<rect x="10" y="20" width="3" height="1" fill="#7C5F3E" />
<rect x="13" y="20" width="1" height="2" fill="#977247" />
<rect x="14" y="20" width="1" height="1" fill="#7C5F3E" />
<rect x="15" y="20" width="1" height="1" fill="#A18362" />
<rect x="17" y="20" width="1" height="1" fill="#A18362" />
<rect x="18" y="20" width="5" height="1" fill="#7C5F3E" />
<rect x="25" y="20" width="1" height="2" fill="#977247" />
<rect x="27" y="20" width="1" height="1" fill="#7C5F3E" />
<rect x="29" y="20" width="2" height="1" fill="#A18362" />
<rect x="31" y="20" width="1" height="1" fill="#D4B495" />
<rect x="34" y="20" width="1" height="4" fill="#B99270" />
<rect x="35" y="20" width="1" height="4" fill="#A18362" />
<rect x="36" y="20" width="1" height="2" fill="#977247" />
<rect x="37" y="20" width="3" height="1" fill="#7C5F3E" />
<rect x="40" y="20" width="2" height="1" fill="#A18362" />
<rect x="42" y="20" width="3" height="1" fill="#7C5F3E" />
<rect x="45" y="20" width="1" height="2" fill="#977247" />
<rect x="46" y="20" width="1" height="1" fill="#7C5F3E" />
<rect x="47" y="20" width="1" height="1" fill="#A18362" />
<rect x="49" y="20" width="1" height="1" fill="#A18362" />
<rect x="50" y="20" width="5" height="1" fill="#7C5F3E" />
<rect x="57" y="20" width="1" height="2" fill="#977247" />
<rect x="59" y="20" width="1" height="1" fill="#7C5F3E" />
<rect x="61" y="20" width="2" height="1" fill="#A18362" />
<rect x="63" y="20" width="1" height="1" fill="#D4B495" />
<rect x="5" y="21" width="1" height="1" fill="#7C5F3E" />
<rect x="6" y="21" width="1" height="1" fill="#977247" />
<rect x="7" y="21" width="1" height="2" fill="#A18362" />
<rect x="8" y="21" width="2" height="1" fill="#7C5F3E" />
<rect x="10" y="21" width="3" height="1" fill="#977247" />
<rect x="14" y="21" width="1" height="1" fill="#977247" />
<rect x="15" y="21" width="1" height="2" fill="#7C5F3E" />
<rect x="17" y="21" width="1" height="2" fill="#B99270" />
<rect x="18" y="21" width="2" height="1" fill="#A18362" />
<rect x="20" y="21" width="1" height="2" fill="#7C5F3E" />
<rect x="21" y="21" width="4" height="1" fill="#977247" />
<rect x="27" y="21" width="1" height="2" fill="#A18362" />
<rect x="29" y="21" width="1" height="1" fill="#A18362" />
<rect x="30" y="21" width="1" height="1" fill="#D4B495" />
<rect x="31" y="21" width="1" height="5" fill="#B99270" />
<rect x="37" y="21" width="1" height="1" fill="#7C5F3E" />
<rect x="38" y="21" width="1" height="1" fill="#977247" />
<rect x="39" y="21" width="1" height="2" fill="#A18362" />
<rect x="40" y="21" width="2" height="1" fill="#7C5F3E" />
<rect x="42" y="21" width="3" height="1" fill="#977247" />
<rect x="46" y="21" width="1" height="1" fill="#977247" />
<rect x="47" y="21" width="1" height="2" fill="#7C5F3E" />
<rect x="49" y="21" width="1" height="2" fill="#B99270" />
<rect x="50" y="21" width="2" height="1" fill="#A18362" />
<rect x="52" y="21" width="1" height="2" fill="#7C5F3E" />
<rect x="53" y="21" width="4" height="1" fill="#977247" />
<rect x="59" y="21" width="1" height="2" fill="#A18362" />
<rect x="61" y="21" width="1" height="1" fill="#A18362" />
<rect x="62" y="21" width="1" height="1" fill="#D4B495" />
<rect x="63" y="21" width="1" height="5" fill="#B99270" />
<rect x="4" y="22" width="1" height="2" fill="#7C5F3E" />
<rect x="5" y="22" width="1" height="2" fill="#977247" />
<rect x="6" y="22" width="1" height="4" fill="#A18362" />
<rect x="8" y="22" width="2" height="3" fill="#B99270" />
<rect x="10" y="22" width="5" height="1" fill="#D4B495" />
<rect x="18" y="22" width="1" height="2" fill="#B99270" />
<rect x="19" y="22" width="1" height="2" fill="#A18362" />
<rect x="21" y="22" width="6" height="1" fill="#A18362" />
<rect x="28" y="22" width="2" height="1" fill="#D4B495" />
<rect x="30" y="22" width="1" height="5" fill="#B99270" />
<rect x="36" y="22" width="1" height="2" fill="#7C5F3E" />
<rect x="37" y="22" width="1" height="2" fill="#977247" />
<rect x="38" y="22" width="1" height="4" fill="#A18362" />
<rect x="40" y="22" width="2" height="3" fill="#B99270" />
<rect x="42" y="22" width="5" height="1" fill="#D4B495" />
<rect x="50" y="22" width="1" height="2" fill="#B99270" />
<rect x="51" y="22" width="1" height="2" fill="#A18362" />
<rect x="53" y="22" width="6" height="1" fill="#A18362" />
<rect x="60" y="22" width="2" height="1" fill="#D4B495" />
<rect x="62" y="22" width="1" height="5" fill="#B99270" />
<rect x="0" y="23" width="1" height="1" fill="#A18362" />
<rect x="7" y="23" width="1" height="2" fill="#B99270" />
<rect x="10" y="23" width="5" height="2" fill="#B99270" />
<rect x="15" y="23" width="1" height="1" fill="#D4B495" />
<rect x="16" y="23" width="1" height="1" fill="#7C5F3E" />
<rect x="17" y="23" width="1" height="1" fill="#A18362" />
<rect x="20" y="23" width="1" height="2" fill="#A18362" />
<rect x="21" y="23" width="1" height="2" fill="#7C5F3E" />
<rect x="22" y="23" width="5" height="1" fill="#A18362" />
<rect x="27" y="23" width="2" height="1" fill="#D4B495" />
<rect x="29" y="23" width="1" height="5" fill="#B99270" />
<rect x="32" y="23" width="1" height="1" fill="#A18362" />
<rect x="39" y="23" width="1" height="2" fill="#B99270" />
<rect x="42" y="23" width="5" height="2" fill="#B99270" />
<rect x="47" y="23" width="1" height="1" fill="#D4B495" />
<rect x="48" y="23" width="1" height="1" fill="#7C5F3E" />
<rect x="49" y="23" width="1" height="1" fill="#A18362" />
<rect x="52" y="23" width="1" height="2" fill="#A18362" />
<rect x="53" y="23" width="1" height="2" fill="#7C5F3E" />
<rect x="54" y="23" width="5" height="1" fill="#A18362" />
<rect x="59" y="23" width="2" height="1" fill="#D4B495" />
<rect x="61" y="23" width="1" height="5" fill="#B99270" />
<rect x="0" y="24" width="1" height="1" fill="#7C5F3E" />
<rect x="1" y="24" width="2" height="1" fill="#A18362" />
<rect x="3" y="24" width="1" height="2" fill="#7C5F3E" />
<rect x="4" y="24" width="1" height="1" fill="#977247" />
<rect x="5" y="24" width="1" height="1" fill="#A18362" />
<rect x="15" y="24" width="1" height="3" fill="#B99270" />
<rect x="16" y="24" width="1" height="1" fill="#D4B495" />
<rect x="17" y="24" width="1" height="2" fill="#7C5F3E" />
<rect x="18" y="24" width="1" height="2" fill="#A18362" />
<rect x="19" y="24" width="1" height="2" fill="#B99270" />
<rect x="22" y="24" width="3" height="1" fill="#A18362" />
<rect x="25" y="24" width="3" height="1" fill="#D4B495" />
<rect x="28" y="24" width="1" height="4" fill="#B99270" />
<rect x="32" y="24" width="1" height="1" fill="#7C5F3E" />
<rect x="33" y="24" width="2" height="1" fill="#A18362" />
<rect x="35" y="24" width="1" height="2" fill="#7C5F3E" />
<rect x="36" y="24" width="1" height="1" fill="#977247" />
<rect x="37" y="24" width="1" height="1" fill="#A18362" />
<rect x="47" y="24" width="1" height="3" fill="#B99270" />
<rect x="48" y="24" width="1" height="1" fill="#D4B495" />
<rect x="49" y="24" width="1" height="2" fill="#7C5F3E" />
<rect x="50" y="24" width="1" height="2" fill="#A18362" />
<rect x="51" y="24" width="1" height="2" fill="#B99270" />
<rect x="54" y="24" width="3" height="1" fill="#A18362" />
<rect x="57" y="24" width="3" height="1" fill="#D4B495" />
<rect x="60" y="24" width="1" height="4" fill="#B99270" />
<rect x="0" y="25" width="1" height="3" fill="#A18362" />
<rect x="1" y="25" width="2" height="1" fill="#7C5F3E" />
<rect x="4" y="25" width="2" height="1" fill="#7C5F3E" />
<rect x="7" y="25" width="3" height="1" fill="#977247" />
<rect x="10" y="25" width="1" height="1" fill="#A18362" />
<rect x="11" y="25" width="3" height="1" fill="#977247" />
<rect x="14" y="25" width="1" height="1" fill="#B99270" />
<rect x="16" y="25" width="1" height="3" fill="#B99270" />
<rect x="20" y="25" width="1" height="2" fill="#B99270" />
<rect x="21" y="25" width="1" height="2" fill="#A18362" />
<rect x="22" y="25" width="1" height="1" fill="#7C5F3E" />
<rect x="23" y="25" width="3" height="1" fill="#977247" />
<rect x="26" y="25" width="2" height="2" fill="#B99270" />
<rect x="32" y="25" width="1" height="3" fill="#A18362" />
<rect x="33" y="25" width="2" height="1" fill="#7C5F3E" />
<rect x="36" y="25" width="2" height="1" fill="#7C5F3E" />
<rect x="39" y="25" width="3" height="1" fill="#977247" />
<rect x="42" y="25" width="1" height="1" fill="#A18362" />
<rect x="43" y="25" width="3" height="1" fill="#977247" />
<rect x="46" y="25" width="1" height="1" fill="#B99270" />
<rect x="48" y="25" width="1" height="3" fill="#B99270" />
<rect x="52" y="25" width="1" height="2" fill="#B99270" />
<rect x="53" y="25" width="1" height="2" fill="#A18362" />
<rect x="54" y="25" width="1" height="1" fill="#7C5F3E" />
<rect x="55" y="25" width="3" height="1" fill="#977247" />
<rect x="58" y="25" width="2" height="2" fill="#B99270" />
<rect x="1" y="26" width="6" height="1" fill="#977247" />
<rect x="7" y="26" width="6" height="1" fill="#7C5F3E" />
<rect x="13" y="26" width="2" height="1" fill="#A18362" />
<rect x="17" y="26" width="1" height="3" fill="#B99270" />
<rect x="18" y="26" width="1" height="1" fill="#7C5F3E" />
<rect x="19" y="26" width="1" height="1" fill="#A18362" />
<rect x="22" y="26" width="1" height="2" fill="#D4B495" />
<rect x="23" y="26" width="1" height="2" fill="#7C5F3E" />
<rect x="24" y="26" width="2" height="1" fill="#977247" />
<rect x="31" y="26" width="1" height="2" fill="#A18362" />
<rect x="33" y="26" width="6" height="1" fill="#977247" />
<rect x="39" y="26" width="6" height="1" fill="#7C5F3E" />
<rect x="45" y="26" width="2" height="1" fill="#A18362" />
<rect x="49" y="26" width="1" height="3" fill="#B99270" />
<rect x="50" y="26" width="1" height="1" fill="#7C5F3E" />
<rect x="51" y="26" width="1" height="1" fill="#A18362" />
<rect x="54" y="26" width="1" height="2" fill="#D4B495" />
<rect x="55" y="26" width="1" height="2" fill="#7C5F3E" />
<rect x="56" y="26" width="2" height="1" fill="#977247" />
<rect x="63" y="26" width="1" height="2" fill="#A18362" />
<rect x="1" y="27" width="3" height="1" fill="#A18362" />
<rect x="4" y="27" width="9" height="1" fill="#977247" />
<rect x="13" y="27" width="1" height="1" fill="#7C5F3E" />
<rect x="14" y="27" width="2" height="1" fill="#A18362" />
<rect x="18" y="27" width="1" height="3" fill="#B99270" />
<rect x="19" y="27" width="1" height="2" fill="#7C5F3E" />
<rect x="20" y="27" width="1" height="2" fill="#A18362" />
<rect x="21" y="27" width="1" height="2" fill="#B99270" />
<rect x="24" y="27" width="2" height="1" fill="#7C5F3E" />
<rect x="26" y="27" width="2" height="1" fill="#977247" />
<rect x="30" y="27" width="1" height="1" fill="#A18362" />
<rect x="33" y="27" width="3" height="1" fill="#A18362" />
<rect x="36" y="27" width="9" height="1" fill="#977247" />
<rect x="45" y="27" width="1" height="1" fill="#7C5F3E" />
<rect x="46" y="27" width="2" height="1" fill="#A18362" />
<rect x="50" y="27" width="1" height="3" fill="#B99270" />
<rect x="51" y="27" width="1" height="2" fill="#7C5F3E" />
<rect x="52" y="27" width="1" height="2" fill="#A18362" />
<rect x="53" y="27" width="1" height="2" fill="#B99270" />
<rect x="56" y="27" width="2" height="1" fill="#7C5F3E" />
<rect x="58" y="27" width="2" height="1" fill="#977247" />
<rect x="62" y="27" width="1" height="1" fill="#A18362" />
<rect x="0" y="28" width="4" height="4" fill="#B99270" />
<rect x="4" y="28" width="8" height="1" fill="#A18362" />
<rect x="12" y="28" width="2" height="1" fill="#977247" />
<rect x="14" y="28" width="1" height="1" fill="#7C5F3E" />
<rect x="15" y="28" width="2" height="1" fill="#A18362" />
<rect x="22" y="28" width="1" height="2" fill="#B99270" />
<rect x="23" y="28" width="3" height="1" fill="#D4B495" />
<rect x="26" y="28" width="1" height="1" fill="#7C5F3E" />
<rect x="27" y="28" width="4" height="1" fill="#977247" />
<rect x="31" y="28" width="1" height="4" fill="#7C5F3E" />
<rect x="32" y="28" width="4" height="4" fill="#B99270" />
<rect x="36" y="28" width="8" height="1" fill="#A18362" />
<rect x="44" y="28" width="2" height="1" fill="#977247" />
<rect x="46" y="28" width="1" height="1" fill="#7C5F3E" />
<rect x="47" y="28" width="2" height="1" fill="#A18362" />
<rect x="54" y="28" width="1" height="2" fill="#B99270" />
<rect x="55" y="28" width="3" height="1" fill="#D4B495" />
<rect x="58" y="28" width="1" height="1" fill="#7C5F3E" />
<rect x="59" y="28" width="4" height="1" fill="#977247" />
<rect x="63" y="28" width="1" height="4" fill="#7C5F3E" />
<rect x="4" y="29" width="7" height="3" fill="#B99270" />
<rect x="11" y="29" width="2" height="1" fill="#A18362" />
<rect x="13" y="29" width="2" height="1" fill="#977247" />
<rect x="15" y="29" width="1" height="1" fill="#7C5F3E" />
<rect x="16" y="29" width="2" height="1" fill="#A18362" />
<rect x="19" y="29" width="1" height="2" fill="#B99270" />
<rect x="20" y="29" width="1" height="1" fill="#7C5F3E" />
<rect x="21" y="29" width="1" height="1" fill="#A18362" />
<rect x="23" y="29" width="3" height="2" fill="#B99270" />
<rect x="26" y="29" width="1" height="1" fill="#D4B495" />
<rect x="27" y="29" width="2" height="1" fill="#7C5F3E" />
<rect x="29" y="29" width="1" height="1" fill="#977247" />
<rect x="30" y="29" width="1" height="3" fill="#7C5F3E" />
<rect x="36" y="29" width="7" height="3" fill="#B99270" />
<rect x="43" y="29" width="2" height="1" fill="#A18362" />
<rect x="45" y="29" width="2" height="1" fill="#977247" />
<rect x="47" y="29" width="1" height="1" fill="#7C5F3E" />
<rect x="48" y="29" width="2" height="1" fill="#A18362" />
<rect x="51" y="29" width="1" height="2" fill="#B99270" />
<rect x="52" y="29" width="1" height="1" fill="#7C5F3E" />
<rect x="53" y="29" width="1" height="1" fill="#A18362" />
<rect x="55" y="29" width="3" height="2" fill="#B99270" />
<rect x="58" y="29" width="1" height="1" fill="#D4B495" />
<rect x="59" y="29" width="2" height="1" fill="#7C5F3E" />
<rect x="61" y="29" width="1" height="1" fill="#977247" />
<rect x="62" y="29" width="1" height="3" fill="#7C5F3E" />
<rect x="11" y="30" width="2" height="2" fill="#B99270" />
<rect x="13" y="30" width="1" height="1" fill="#A18362" />
<rect x="14" y="30" width="3" height="1" fill="#977247" />
<rect x="17" y="30" width="2" height="1" fill="#A18362" />
<rect x="20" y="30" width="1" height="1" fill="#B99270" />
<rect x="21" y="30" width="1" height="1" fill="#7C5F3E" />
<rect x="22" y="30" width="1" height="1" fill="#A18362" />
<rect x="26" y="30" width="1" height="2" fill="#B99270" />
<rect x="27" y="30" width="2" height="2" fill="#D4B495" />
<rect x="29" y="30" width="1" height="1" fill="#7C5F3E" />
<rect x="43" y="30" width="2" height="2" fill="#B99270" />
<rect x="45" y="30" width="1" height="1" fill="#A18362" />
<rect x="46" y="30" width="3" height="1" fill="#977247" />
<rect x="49" y="30" width="2" height="1" fill="#A18362" />
<rect x="52" y="30" width="1" height="1" fill="#B99270" />
<rect x="53" y="30" width="1" height="1" fill="#7C5F3E" />
<rect x="54" y="30" width="1" height="1" fill="#A18362" />
<rect x="58" y="30" width="1" height="2" fill="#B99270" />
<rect x="59" y="30" width="2" height="2" fill="#D4B495" />
<rect x="61" y="30" width="1" height="1" fill="#7C5F3E" />
<rect x="13" y="31" width="1" height="1" fill="#B99270" />
<rect x="14" y="31" width="2" height="1" fill="#A18362" />
<rect x="16" y="31" width="1" height="1" fill="#977247" />
<rect x="17" y="31" width="3" height="1" fill="#7C5F3E" />
<rect x="20" y="31" width="1" height="1" fill="#A18362" />
<rect x="21" y="31" width="1" height="1" fill="#D4B495" />
<rect x="22" y="31" width="1" height="1" fill="#7C5F3E" />
<rect x="23" y="31" width="1" height="1" fill="#A18362" />
<rect x="24" y="31" width="2" height="1" fill="#B99270" />
<rect x="29" y="31" width="1" height="1" fill="#D4B495" />
<rect x="45" y="31" width="1" height="1" fill="#B99270" />
<rect x="46" y="31" width="2" height="1" fill="#A18362" />
<rect x="48" y="31" width="1" height="1" fill="#977247" />
<rect x="49" y="31" width="3" height="1" fill="#7C5F3E" />
<rect x="52" y="31" width="1" height="1" fill="#A18362" />
<rect x="53" y="31" width="1" height="1" fill="#D4B495" />
<rect x="54" y="31" width="1" height="1" fill="#7C5F3E" />
<rect x="55" y="31" width="1" height="1" fill="#A18362" />
<rect x="56" y="31" width="2" height="1" fill="#B99270" />
<rect x="61" y="31" width="1" height="1" fill="#D4B495" />
</svg>