<?xml version="1.0" encoding="UTF-8" ?>
<svg version="1.1" width="160" height="240" xmlns="http://www.w3.org/2000/svg" shape-rendering="crispEdges">
<!-- 头部/驾驶舱 -->
<rect x="60" y="20" width="40" height="30" fill="#5A6C7D" />
<rect x="55" y="25" width="50" height="20" fill="#7A8C9D" />
<!-- 驾驶舱窗口 -->
<rect x="65" y="30" width="30" height="10" fill="#4ECDC4" />
<rect x="70" y="32" width="20" height="6" fill="#00CED1" />
<!-- 天线 -->
<rect x="75" y="10" width="10" height="10" fill="#FF6B6B" />

<!-- 颈部连接 -->
<rect x="70" y="50" width="20" height="10" fill="#4A5C6D" />

<!-- 躯干主体 -->
<rect x="50" y="60" width="60" height="80" fill="#5A6C7D" />
<rect x="45" y="65" width="70" height="70" fill="#7A8C9D" />
<!-- 胸部装甲细节 -->
<rect x="60" y="70" width="40" height="50" fill="#6A7C8D" />
<rect x="70" y="80" width="20" height="30" fill="#8A9CAD" />
<!-- 能量核心 -->
<rect x="75" y="95" width="10" height="10" fill="#FF6B6B" />
<rect x="77" y="97" width="6" height="6" fill="#FF4444" />

<!-- 左肩 -->
<rect x="30" y="65" width="20" height="25" fill="#5A6C7D" />
<rect x="25" y="70" width="25" height="15" fill="#7A8C9D" />

<!-- 右肩 -->
<rect x="110" y="65" width="20" height="25" fill="#5A6C7D" />
<rect x="110" y="70" width="25" height="15" fill="#7A8C9D" />

<!-- 左臂上部 -->
<rect x="20" y="90" width="15" height="40" fill="#6A7C8D" />
<rect x="15" y="95" width="20" height="30" fill="#7A8C9D" />

<!-- 右臂上部 -->
<rect x="125" y="90" width="15" height="40" fill="#6A7C8D" />
<rect x="125" y="95" width="20" height="30" fill="#7A8C9D" />

<!-- 左臂关节 -->
<rect x="18" y="130" width="19" height="15" fill="#5A6C7D" />

<!-- 右臂关节 -->
<rect x="123" y="130" width="19" height="15" fill="#5A6C7D" />

<!-- 左臂下部 -->
<rect x="15" y="145" width="20" height="35" fill="#6A7C8D" />
<rect x="12" y="150" width="23" height="25" fill="#7A8C9D" />

<!-- 右臂下部 -->
<rect x="125" y="145" width="20" height="35" fill="#6A7C8D" />
<rect x="125" y="150" width="23" height="25" fill="#7A8C9D" />

<!-- 左手/武器 -->
<rect x="10" y="180" width="25" height="20" fill="#4A5C6D" />
<rect x="8" y="185" width="10" height="10" fill="#FF6B6B" />

<!-- 右手/武器 -->
<rect x="125" y="180" width="25" height="20" fill="#4A5C6D" />
<rect x="142" y="185" width="10" height="10" fill="#FF6B6B" />

<!-- 腰部 -->
<rect x="55" y="140" width="50" height="20" fill="#5A6C7D" />
<rect x="60" y="145" width="40" height="10" fill="#6A7C8D" />

<!-- 左腿上部 -->
<rect x="50" y="160" width="25" height="40" fill="#6A7C8D" />
<rect x="48" y="165" width="27" height="30" fill="#7A8C9D" />

<!-- 右腿上部 -->
<rect x="85" y="160" width="25" height="40" fill="#6A7C8D" />
<rect x="85" y="165" width="27" height="30" fill="#7A8C9D" />

<!-- 左膝关节 -->
<rect x="50" y="200" width="25" height="15" fill="#5A6C7D" />

<!-- 右膝关节 -->
<rect x="85" y="200" width="25" height="15" fill="#5A6C7D" />

<!-- 左腿下部 -->
<rect x="48" y="215" width="27" height="20" fill="#6A7C8D" />

<!-- 右腿下部 -->
<rect x="85" y="215" width="27" height="20" fill="#6A7C8D" />

<!-- 左脚 -->
<rect x="45" y="235" width="30" height="5" fill="#4A5C6D" />

<!-- 右脚 -->
<rect x="85" y="235" width="30" height="5" fill="#4A5C6D" />
</svg>
