<?xml version="1.0" encoding="UTF-8" ?>
<svg version="1.1" width="320" height="48" xmlns="http://www.w3.org/2000/svg" shape-rendering="crispEdges">
<!-- Frame 0: idle_a -->
<rect x="10" y="4" width="12" height="2" fill="#8B4513" />
<rect x="8" y="6" width="16" height="2" fill="#8B4513" />
<rect x="8" y="8" width="2" height="2" fill="#8B4513" />
<rect x="22" y="8" width="2" height="2" fill="#8B4513" />
<rect x="10" y="6" width="12" height="8" fill="#FFD4A3" />
<rect x="12" y="9" width="2" height="2" fill="#000000" />
<rect x="18" y="9" width="2" height="2" fill="#000000" />
<rect x="14" y="12" width="4" height="1" fill="#FF6B6B" />
<rect x="13" y="14" width="6" height="2" fill="#FFD4A3" />
<rect x="10" y="16" width="12" height="8" fill="#4ECDC4" />
<rect x="9" y="18" width="2" height="6" fill="#4ECDC4" />
<rect x="21" y="18" width="2" height="6" fill="#4ECDC4" />
<rect x="10" y="24" width="12" height="2" fill="#8B4513" />
<rect x="10" y="26" width="12" height="10" fill="#2C3E50" />
<rect x="7" y="18" width="2" height="2" fill="#FFD4A3" />
<rect x="6" y="20" width="3" height="6" fill="#FFD4A3" />
<rect x="23" y="18" width="2" height="2" fill="#FFD4A3" />
<rect x="23" y="20" width="3" height="6" fill="#FFD4A3" />
<rect x="11" y="36" width="4" height="10" fill="#2C3E50" />
<rect x="17" y="36" width="4" height="10" fill="#2C3E50" />
<rect x="10" y="46" width="5" height="2" fill="#34495E" />
<rect x="17" y="46" width="5" height="2" fill="#34495E" />

<!-- Frame 1: idle_b blink -->
<rect x="42" y="4" width="12" height="2" fill="#8B4513" />
<rect x="40" y="6" width="16" height="2" fill="#8B4513" />
<rect x="40" y="8" width="2" height="2" fill="#8B4513" />
<rect x="54" y="8" width="2" height="2" fill="#8B4513" />
<rect x="42" y="6" width="12" height="8" fill="#FFD4A3" />
<rect x="44" y="10" width="2" height="1" fill="#000000" />
<rect x="50" y="10" width="2" height="1" fill="#000000" />
<rect x="46" y="12" width="4" height="1" fill="#FF6B6B" />
<rect x="45" y="14" width="6" height="2" fill="#FFD4A3" />
<rect x="42" y="16" width="12" height="8" fill="#4ECDC4" />
<rect x="41" y="18" width="2" height="6" fill="#4ECDC4" />
<rect x="53" y="18" width="2" height="6" fill="#4ECDC4" />
<rect x="42" y="24" width="12" height="2" fill="#8B4513" />
<rect x="42" y="26" width="12" height="10" fill="#2C3E50" />
<rect x="39" y="18" width="2" height="2" fill="#FFD4A3" />
<rect x="38" y="20" width="3" height="6" fill="#FFD4A3" />
<rect x="55" y="18" width="2" height="2" fill="#FFD4A3" />
<rect x="55" y="20" width="3" height="6" fill="#FFD4A3" />
<rect x="43" y="36" width="4" height="10" fill="#2C3E50" />
<rect x="49" y="36" width="4" height="10" fill="#2C3E50" />
<rect x="42" y="46" width="5" height="2" fill="#34495E" />
<rect x="49" y="46" width="5" height="2" fill="#34495E" />

<!-- Frame 2: run_a -->
<rect x="74" y="4" width="12" height="2" fill="#8B4513" />
<rect x="72" y="6" width="16" height="2" fill="#8B4513" />
<rect x="72" y="8" width="2" height="2" fill="#8B4513" />
<rect x="86" y="8" width="2" height="2" fill="#8B4513" />
<rect x="74" y="6" width="12" height="8" fill="#FFD4A3" />
<rect x="76" y="9" width="2" height="2" fill="#000000" />
<rect x="82" y="9" width="2" height="2" fill="#000000" />
<rect x="78" y="12" width="4" height="1" fill="#FF6B6B" />
<rect x="77" y="14" width="6" height="2" fill="#FFD4A3" />
<rect x="74" y="16" width="12" height="8" fill="#4ECDC4" />
<rect x="71" y="18" width="3" height="3" fill="#FFD4A3" />
<rect x="70" y="21" width="3" height="6" fill="#FFD4A3" />
<rect x="86" y="18" width="3" height="3" fill="#FFD4A3" />
<rect x="88" y="21" width="2" height="5" fill="#FFD4A3" />
<rect x="74" y="24" width="12" height="2" fill="#8B4513" />
<rect x="74" y="26" width="12" height="10" fill="#2C3E50" />
<rect x="74" y="36" width="4" height="8" fill="#2C3E50" />
<rect x="80" y="38" width="4" height="8" fill="#2C3E50" />
<rect x="73" y="44" width="6" height="2" fill="#34495E" />
<rect x="80" y="46" width="6" height="2" fill="#34495E" />

<!-- Frame 3: run_b -->
<rect x="106" y="4" width="12" height="2" fill="#8B4513" />
<rect x="104" y="6" width="16" height="2" fill="#8B4513" />
<rect x="104" y="8" width="2" height="2" fill="#8B4513" />
<rect x="118" y="8" width="2" height="2" fill="#8B4513" />
<rect x="106" y="6" width="12" height="8" fill="#FFD4A3" />
<rect x="108" y="9" width="2" height="2" fill="#000000" />
<rect x="114" y="9" width="2" height="2" fill="#000000" />
<rect x="110" y="12" width="4" height="1" fill="#FF6B6B" />
<rect x="109" y="14" width="6" height="2" fill="#FFD4A3" />
<rect x="106" y="16" width="12" height="8" fill="#4ECDC4" />
<rect x="103" y="18" width="2" height="3" fill="#FFD4A3" />
<rect x="102" y="21" width="3" height="6" fill="#FFD4A3" />
<rect x="118" y="18" width="2" height="3" fill="#FFD4A3" />
<rect x="119" y="21" width="3" height="6" fill="#FFD4A3" />
<rect x="106" y="24" width="12" height="2" fill="#8B4513" />
<rect x="106" y="26" width="12" height="10" fill="#2C3E50" />
<rect x="109" y="38" width="4" height="8" fill="#2C3E50" />
<rect x="115" y="36" width="4" height="8" fill="#2C3E50" />
<rect x="108" y="46" width="6" height="2" fill="#34495E" />
<rect x="115" y="44" width="6" height="2" fill="#34495E" />

<!-- Frame 4: run_c -->
<rect x="138" y="4" width="12" height="2" fill="#8B4513" />
<rect x="136" y="6" width="16" height="2" fill="#8B4513" />
<rect x="136" y="8" width="2" height="2" fill="#8B4513" />
<rect x="150" y="8" width="2" height="2" fill="#8B4513" />
<rect x="138" y="6" width="12" height="8" fill="#FFD4A3" />
<rect x="140" y="9" width="2" height="2" fill="#000000" />
<rect x="146" y="9" width="2" height="2" fill="#000000" />
<rect x="142" y="12" width="4" height="1" fill="#FF6B6B" />
<rect x="141" y="14" width="6" height="2" fill="#FFD4A3" />
<rect x="138" y="16" width="12" height="8" fill="#4ECDC4" />
<rect x="135" y="18" width="3" height="3" fill="#FFD4A3" />
<rect x="134" y="21" width="2" height="5" fill="#FFD4A3" />
<rect x="150" y="18" width="3" height="3" fill="#FFD4A3" />
<rect x="151" y="21" width="3" height="6" fill="#FFD4A3" />
<rect x="138" y="24" width="12" height="2" fill="#8B4513" />
<rect x="138" y="26" width="12" height="10" fill="#2C3E50" />
<rect x="138" y="36" width="4" height="8" fill="#2C3E50" />
<rect x="145" y="38" width="4" height="8" fill="#2C3E50" />
<rect x="137" y="44" width="6" height="2" fill="#34495E" />
<rect x="145" y="46" width="6" height="2" fill="#34495E" />

<!-- Frame 5: run_d -->
<rect x="170" y="4" width="12" height="2" fill="#8B4513" />
<rect x="168" y="6" width="16" height="2" fill="#8B4513" />
<rect x="168" y="8" width="2" height="2" fill="#8B4513" />
<rect x="182" y="8" width="2" height="2" fill="#8B4513" />
<rect x="170" y="6" width="12" height="8" fill="#FFD4A3" />
<rect x="172" y="9" width="2" height="2" fill="#000000" />
<rect x="178" y="9" width="2" height="2" fill="#000000" />
<rect x="174" y="12" width="4" height="1" fill="#FF6B6B" />
<rect x="173" y="14" width="6" height="2" fill="#FFD4A3" />
<rect x="170" y="16" width="12" height="8" fill="#4ECDC4" />
<rect x="167" y="18" width="2" height="3" fill="#FFD4A3" />
<rect x="166" y="21" width="3" height="6" fill="#FFD4A3" />
<rect x="182" y="18" width="2" height="3" fill="#FFD4A3" />
<rect x="183" y="21" width="3" height="6" fill="#FFD4A3" />
<rect x="170" y="24" width="12" height="2" fill="#8B4513" />
<rect x="170" y="26" width="12" height="10" fill="#2C3E50" />
<rect x="173" y="38" width="4" height="8" fill="#2C3E50" />
<rect x="179" y="36" width="4" height="8" fill="#2C3E50" />
<rect x="172" y="46" width="6" height="2" fill="#34495E" />
<rect x="179" y="44" width="6" height="2" fill="#34495E" />

<!-- Frame 6: jump -->
<rect x="202" y="4" width="12" height="2" fill="#8B4513" />
<rect x="200" y="6" width="16" height="2" fill="#8B4513" />
<rect x="200" y="8" width="2" height="2" fill="#8B4513" />
<rect x="214" y="8" width="2" height="2" fill="#8B4513" />
<rect x="202" y="6" width="12" height="8" fill="#FFD4A3" />
<rect x="204" y="9" width="2" height="2" fill="#000000" />
<rect x="210" y="9" width="2" height="2" fill="#000000" />
<rect x="206" y="12" width="4" height="1" fill="#FF6B6B" />
<rect x="205" y="14" width="6" height="2" fill="#FFD4A3" />
<rect x="202" y="16" width="12" height="8" fill="#4ECDC4" />
<rect x="198" y="16" width="3" height="8" fill="#FFD4A3" />
<rect x="215" y="16" width="3" height="8" fill="#FFD4A3" />
<rect x="202" y="24" width="12" height="2" fill="#8B4513" />
<rect x="202" y="26" width="12" height="10" fill="#2C3E50" />
<rect x="202" y="35" width="4" height="7" fill="#2C3E50" />
<rect x="210" y="35" width="4" height="7" fill="#2C3E50" />
<rect x="200" y="42" width="6" height="2" fill="#34495E" />
<rect x="210" y="42" width="6" height="2" fill="#34495E" />

<!-- Frame 7: fall -->
<rect x="234" y="4" width="12" height="2" fill="#8B4513" />
<rect x="232" y="6" width="16" height="2" fill="#8B4513" />
<rect x="232" y="8" width="2" height="2" fill="#8B4513" />
<rect x="246" y="8" width="2" height="2" fill="#8B4513" />
<rect x="234" y="6" width="12" height="8" fill="#FFD4A3" />
<rect x="236" y="9" width="2" height="2" fill="#000000" />
<rect x="242" y="9" width="2" height="2" fill="#000000" />
<rect x="238" y="12" width="4" height="1" fill="#FF6B6B" />
<rect x="237" y="14" width="6" height="2" fill="#FFD4A3" />
<rect x="234" y="16" width="12" height="8" fill="#4ECDC4" />
<rect x="230" y="19" width="3" height="7" fill="#FFD4A3" />
<rect x="247" y="19" width="3" height="7" fill="#FFD4A3" />
<rect x="234" y="24" width="12" height="2" fill="#8B4513" />
<rect x="234" y="26" width="12" height="10" fill="#2C3E50" />
<rect x="235" y="36" width="4" height="10" fill="#2C3E50" />
<rect x="241" y="36" width="4" height="10" fill="#2C3E50" />
<rect x="234" y="46" width="5" height="2" fill="#34495E" />
<rect x="241" y="46" width="5" height="2" fill="#34495E" />

<!-- Frame 8: jetpack_a -->
<rect x="266" y="4" width="12" height="2" fill="#8B4513" />
<rect x="264" y="6" width="16" height="2" fill="#8B4513" />
<rect x="264" y="8" width="2" height="2" fill="#8B4513" />
<rect x="278" y="8" width="2" height="2" fill="#8B4513" />
<rect x="266" y="6" width="12" height="8" fill="#FFD4A3" />
<rect x="268" y="9" width="2" height="2" fill="#000000" />
<rect x="274" y="9" width="2" height="2" fill="#000000" />
<rect x="270" y="12" width="4" height="1" fill="#FF6B6B" />
<rect x="269" y="14" width="6" height="2" fill="#FFD4A3" />
<rect x="264" y="16" width="12" height="8" fill="#4ECDC4" />
<rect x="262" y="17" width="2" height="9" fill="#FFD4A3" />
<rect x="278" y="17" width="2" height="9" fill="#FFD4A3" />
<rect x="262" y="19" width="2" height="8" fill="#7F8C8D" />
<rect x="278" y="19" width="2" height="8" fill="#7F8C8D" />
<rect x="264" y="24" width="12" height="2" fill="#8B4513" />
<rect x="264" y="26" width="12" height="10" fill="#2C3E50" />
<rect x="266" y="35" width="4" height="8" fill="#2C3E50" />
<rect x="272" y="35" width="4" height="8" fill="#2C3E50" />
<rect x="264" y="43" width="4" height="3" fill="#FFA502" />
<rect x="265" y="46" width="2" height="2" fill="#FFD32A" />
<rect x="276" y="43" width="4" height="3" fill="#FFA502" />
<rect x="277" y="46" width="2" height="2" fill="#FFD32A" />

<!-- Frame 9: jetpack_b -->
<rect x="298" y="4" width="12" height="2" fill="#8B4513" />
<rect x="296" y="6" width="16" height="2" fill="#8B4513" />
<rect x="296" y="8" width="2" height="2" fill="#8B4513" />
<rect x="310" y="8" width="2" height="2" fill="#8B4513" />
<rect x="298" y="6" width="12" height="8" fill="#FFD4A3" />
<rect x="300" y="9" width="2" height="2" fill="#000000" />
<rect x="306" y="9" width="2" height="2" fill="#000000" />
<rect x="302" y="12" width="4" height="1" fill="#FF6B6B" />
<rect x="301" y="14" width="6" height="2" fill="#FFD4A3" />
<rect x="296" y="16" width="12" height="8" fill="#4ECDC4" />
<rect x="294" y="17" width="2" height="9" fill="#FFD4A3" />
<rect x="310" y="17" width="2" height="9" fill="#FFD4A3" />
<rect x="294" y="19" width="2" height="8" fill="#7F8C8D" />
<rect x="310" y="19" width="2" height="8" fill="#7F8C8D" />
<rect x="296" y="24" width="12" height="2" fill="#8B4513" />
<rect x="296" y="26" width="12" height="10" fill="#2C3E50" />
<rect x="298" y="35" width="4" height="8" fill="#2C3E50" />
<rect x="304" y="35" width="4" height="8" fill="#2C3E50" />
<rect x="294" y="43" width="4" height="4" fill="#FF7F11" />
<rect x="295" y="47" width="2" height="1" fill="#FFE066" />
<rect x="310" y="43" width="4" height="4" fill="#FF7F11" />
<rect x="311" y="47" width="2" height="1" fill="#FFE066" />
</svg>
